<svg xmlns="http://www.w3.org/2000/svg" width="444" height="620" viewBox="0 0 444 620" role="img" aria-labelledby="title desc">
  <title id="title">Codex Toolkit API configuration screen</title>
  <desc id="desc">A dark Codex Toolkit panel showing API endpoint, masked key, test model, route status, and apply buttons.</desc>
  <defs>
    <linearGradient id="shell" x1="0" x2="0" y1="0" y2="1">
      <stop offset="0" stop-color="#2b3d61"/>
      <stop offset="1" stop-color="#07101d"/>
    </linearGradient>
    <linearGradient id="panel" x1="0" x2="0" y1="0" y2="1">
      <stop offset="0" stop-color="#111c31"/>
      <stop offset="1" stop-color="#091423"/>
    </linearGradient>
  </defs>
  <rect width="444" height="620" rx="22" fill="#050b16"/>
  <rect x="4" y="6" width="436" height="608" rx="22" fill="url(#shell)" stroke="#354a73"/>
  <text x="25" y="42" fill="#fff" font-family="Arial, 'Microsoft YaHei', sans-serif" font-size="16" font-weight="700">Codex Toolkit</text>
  <text x="25" y="65" fill="#8fb0e9" font-family="Arial, 'Microsoft YaHei', sans-serif" font-size="13">刷新 下午11:11:11 | 事件 刚刚</text>
  <circle cx="360" cy="43" r="17" fill="#0b1628"/>
  <path d="M360 34v8m5-5a8 8 0 1 1-10 0" fill="none" stroke="#fff" stroke-width="2" stroke-linecap="round"/>
  <circle cx="402" cy="43" r="17" fill="#0b1628"/>
  <path d="M402 35v3m0 10v3m8-8h-3m-10 0h-3m13.2-5.2-2.1 2.1m-7.2 7.2-2.1 2.1m11.4 0-2.1-2.1m-7.2-7.2-2.1-2.1" stroke="#fff" stroke-width="1.8" stroke-linecap="round"/>
  <circle cx="402" cy="43" r="4" fill="none" stroke="#fff" stroke-width="1.8"/>

  <rect x="25" y="80" width="392" height="500" rx="24" fill="#0b1526" stroke="#273d61"/>
  <rect x="55" y="79" width="327" height="40" rx="11" fill="#172234" stroke="#344462"/>
  <text x="67" y="104" fill="#e7edf9" font-family="Arial, 'Microsoft YaHei', sans-serif" font-size="15" font-weight="700">https://api.moshushi.xyz/v1</text>

  <text x="55" y="146" fill="#a8bbdb" font-family="Arial, 'Microsoft YaHei', sans-serif" font-size="13">API Key</text>
  <rect x="55" y="157" width="267" height="41" rx="12" fill="#162132" stroke="#344462"/>
  <text x="68" y="184" fill="#e8eef8" font-family="Arial, sans-serif" font-size="18" letter-spacing="1">••••••••••••••••••••••••••••••••</text>
  <rect x="328" y="157" width="54" height="41" rx="14" fill="#101b2b" stroke="#344462"/>
  <text x="342" y="183" fill="#e8eef8" font-family="Arial, 'Microsoft YaHei', sans-serif" font-size="13" font-weight="700">显示</text>

  <text x="55" y="226" fill="#a8bbdb" font-family="Arial, 'Microsoft YaHei', sans-serif" font-size="13">测试模型</text>
  <rect x="55" y="238" width="327" height="41" rx="12" fill="#162132" stroke="#344462"/>
  <text x="68" y="264" fill="#e8eef8" font-family="Arial, sans-serif" font-size="15" font-weight="700">gpt-5.5</text>

  <rect x="55" y="291" width="327" height="118" rx="14" fill="url(#panel)" stroke="#284063"/>
  <text x="68" y="319" fill="#a8bbdb" font-family="Arial, 'Microsoft YaHei', sans-serif" font-size="13">路由</text>
  <text x="131" y="319" fill="#eaf0fb" font-family="Arial, 'Microsoft YaHei', sans-serif" font-size="13" font-weight="800">中转站</text>
  <text x="68" y="343" fill="#a8bbdb" font-family="Arial, 'Microsoft YaHei', sans-serif" font-size="13">配置</text>
  <text x="131" y="343" fill="#eaf0fb" font-family="Arial, 'Microsoft YaHei', sans-serif" font-size="13" font-weight="800">已配置</text>
  <text x="68" y="367" fill="#a8bbdb" font-family="Arial, 'Microsoft YaHei', sans-serif" font-size="13">Codex</text>
  <text x="131" y="367" fill="#eaf0fb" font-family="Arial, 'Microsoft YaHei', sans-serif" font-size="13" font-weight="800">运行中</text>
  <text x="68" y="392" fill="#a8bbdb" font-family="Arial, 'Microsoft YaHei', sans-serif" font-size="13">最后应用</text>
  <text x="131" y="392" fill="#eaf0fb" font-family="Arial, 'Microsoft YaHei', sans-serif" font-size="13" font-weight="800">--</text>

  <rect x="55" y="422" width="327" height="37" rx="12" fill="#101b2d" stroke="#304666"/>
  <text x="177" y="446" fill="#ff9298" font-family="Arial, 'Microsoft YaHei', sans-serif" font-size="13" font-weight="800">恢复官方端点</text>
  <rect x="55" y="470" width="327" height="37" rx="12" fill="#101b2d" stroke="#304666"/>
  <text x="176" y="495" fill="#eff4ff" font-family="Arial, 'Microsoft YaHei', sans-serif" font-size="13" font-weight="800">应用到 Codex</text>
  <rect x="55" y="518" width="327" height="40" rx="10" fill="#87a4ff"/>
  <text x="161" y="544" fill="#fff" font-family="Arial, 'Microsoft YaHei', sans-serif" font-size="14" font-weight="800">应用并重启 Codex</text>

  <rect x="410" y="217" width="7" height="134" rx="4" fill="#748097" opacity=".7"/>
  <rect x="25" y="576" width="34" height="19" rx="9.5" fill="#809dff"/>
  <circle cx="50" cy="585.5" r="8" fill="#fff"/>
  <text x="72" y="592" fill="#fff" font-family="Arial, 'Microsoft YaHei', sans-serif" font-size="16" font-weight="800">日间/夜间</text>
  <text x="363" y="592" fill="#fff" font-family="Arial, 'Microsoft YaHei', sans-serif" font-size="15" font-weight="800">x  退出</text>
</svg>
